<svg xmlns="http://www.w3.org/2000/svg" xmlns:xlink="http://www.w3.org/1999/xlink" width="2000" height="2000" viewBox="0 0 2000 2000">
  <defs>
    <style>
      .cls-1 {
        fill-rule: evenodd;
        fill: url(#radial-gradient);
      }
    </style>
    <radialGradient id="radial-gradient" cx="995.623" cy="993.936" r="929.904" gradientUnits="userSpaceOnUse">
      <stop offset="0" stop-color="red"/>
      <stop offset="0.777" stop-color="red"/>
      <stop offset="1"/>
    </radialGradient>
  </defs>
  <path id="base2_copy" data-name="base2 copy" class="cls-1" d="M995.625,64.031c513.605,0,929.965,416.334,929.965,929.907s-416.36,929.9-929.965,929.9S65.656,1507.51,65.656,993.938,482.018,64.031,995.625,64.031Z"/>
<defs>
    <style>
      .cls-1 {
        fill: #fff;
        fill-rule: evenodd;
        opacity: 0.57;
      }
    </style>
  </defs>
  <path id="Color_Fill_2" data-name="Color Fill 2" class="cls-1" d="M962.8,59.641c380.559-6.032,634.179,171.44,778.989,402.6,102.18,163.1,220.85,401.288-52.51,459.489-40.98-86.023-38.9-217.209-70.02-323.83-60.13-206-155.55-344.95-323.86-446.361-60.71-36.585-143.68-60.39-218.81-78.769ZM236.324,930.483c-11.672-340.52,167.092-588.85,385.12-722.055l148.8-65.641v-4.376C424.367,198.95,210.682,538.616,161.926,908.6L74.4,917.354V891.1c27.041-102.307,32.889-194.859,70.022-280.07,120.6-276.758,415.162-551.6,818.381-512V103.4H932.166l4.377,8.752c48.868-1.85,117.357-.747,144.417,21.881a1644.626,1644.626,0,0,0-227.568,494.5c-29.733,109.936-20.627,253.287-74.4,336.958C582.579,965.5,432.81,931.328,236.324,930.483ZM787.746,129.659q2.189,4.375,4.376,8.752l4.377-8.752h-8.753Zm-13.129,4.376q2.189,4.376,4.376,8.752l4.377-8.752h-8.753ZM74.4,961.115l83.151,17.5c-2.364,149.941,41.929,253.011,65.646,367.591-27.822,2.96-54.078,10.89-70.022,0C111.769,1315.29,52.578,1044.85,74.4,961.115Zm153.173,30.633c160.953,2.742,313.4,53.892,490.153,56.892-0.891,200.79-3.92,392.96,17.506,577.64h-4.377c-142.78-38.72-267.22-58.32-367.615-135.66C281.893,1427.96,226.968,1144.83,227.571,991.748Z"/>
</svg>
