<svg xmlns="http://www.w3.org/2000/svg" xmlns:xlink="http://www.w3.org/1999/xlink" width="1377" height="1380" viewBox="0 0 459 460">
  <defs>
    <style>
      .cls-1 {
        fill: url(#radial-gradient);
      }

      .cls-2, .cls-3, .cls-4, .cls-5 {
        fill-rule: evenodd;
      }

      .cls-3, .cls-5 {
        fill: #fff;
      }

      .cls-4 {
        fill: #e51fff;
      }

      .cls-5 {
        opacity: 0.57;
      }
    </style>
    <radialGradient id="radial-gradient" cx="232.5" cy="232.5" r="212.5" gradientUnits="userSpaceOnUse">
      <stop offset="0" stop-color="#36ff00"/>
      <stop offset="0.813" stop-color="#0cff00"/>
      <stop offset="1"/>
    </radialGradient>
  </defs>
  <circle id="base2" class="cls-1" cx="232.5" cy="232.5" r="212.5"/>
  <path id="Color_Fill_6" data-name="Color Fill 6" class="cls-2" d="M255,74c5.145,4.166,7.131,9.4,7,19l10-6c-2.61,14.7,2.87,20.312,16,22,2.325-27.648,32.7-34.184,52-19q-1-5-2-10l10,9c17.124,44.58-25.8,56.5-14,83l15,16H339c5.145,7.327,14.988,24.907,9,39-2.731-3.45-3.939-6.748-8-9,3.1,10.455-.455,22.469-3,30l-2-1c-1.024-4.784-1.915-5.556-5-8l-6,23,32-15q-3,9-6,18c4.473,2.244,7.951,9.391,7,14l16,2-2,1c-11.915,13.534-31.378,16.974-46,28l8,14h-4l-12-5v4l12,29c-8.261-4.652-19.439-3.942-30-2,8.517,46.273-35.076,60.666-51,26-11.4,3.542-29.411,1.834-41,0-6.376,31.815-62.415,22.188-50-26h-2c-7.5-4.084-19.345-1.2-26,1v-1c4.905-9.2,10.247-17.581,11-31l-15,5q4-8,8-16c-16.662-4.309-34.741-16.355-46-27l16-2c-0.243-4.68,2.184-11.475,7-14q-3-9-6-18l32,15q-4-11-8-22l-2,1-4,7v-2c-4.029-5.432-5.629-19.252-3-28l-9,8c-0.583-18.845,3.664-28.7,11-39l-11,1q0.5-1,1-2c50.715-24.811-29.183-54.78-14-79,2.629-4.194,7.4-2.834,11-6,6.164-5.423,5.635-12.9,14-17-1.992,3.2-4.009,6.347-2,11,12.025-26.649,50.322-2.642,52,21,21.534-10.236,44.169-19.785,59-37l3,2c1.182,4.327,2.2,7.424,1,12C244.353,89.857,250.835,82.421,255,74Z"/>
  <path id="Color_Fill_5" data-name="Color Fill 5" class="cls-3" d="M311,88c11.414-.17,19.345.665,24,7,2.152,2.929,1.61,5.2,5,7,1.294-2.381,2.411-4.749,5-6v2c11.138,13.906-7.7,36.772-12,43h-2c-0.631-1.754-.193-0.971-1-2v-2c9.991-3.355,13.3-15.048,13-29h-1v1c-2.27,2.179-2.507,3.77-6,5,0.345-8.89-1.589-14.9-8-17-11.83-9.554-27.135,5.994-33,10v-2c2.132-2.283,2.134-5.26,4-8C301.788,92.906,307.207,91.171,311,88ZM134,92a128.04,128.04,0,0,1,17,1c4.989,6.386,10.735,8.246,13,18h-1c-5.46-8.409-14.654-12.206-29-12-2.4,2.388-11,10-11,10-1.5-1.624-1.552-2.023-2-5C125.234,100.052,129.827,96.079,134,92Zm122,8,10-1c-0.127,7.029,1.875,10.343,7,12,4.208,3.275,9.985,2.07,16,4,6.053,1.942,13.976,5.375,19,9,17.391,12.548,12.844,33.379,22,53h-4c-1.359-1.262-1.768-1.365-4-2v1c8.355,5.693,14.411,18.712,17,30h-1c-3.162-4.834-9.262-7.774-17-8v1h1c7.828,8.236,13.847,14.68,14,31h-1c-2.811-2.944-4.976-4.016-11-4,0.428,10.721.087,19.2-2,28h-1c-3.969-6.183-10.436-6.322-21-6a18.068,18.068,0,0,0-3-4v-2h2c1.3,0.877,2.467.894,5,1v-2c-8.737-5.765-9.534-16.963-12-29l-7-5c-15.388-.461-44.963,7.549-52,15-12.695-3.366-42.328-6.627-54-4-4.609,7.635-7.906,19.978-12,28,3.58,0.416,2.516-.472,4,2-3.582,3.567-3.469,5.887-11,6-3.535-3.487-8.1-5.877-15-6a55.8,55.8,0,0,1-8,6,106.249,106.249,0,0,1,0-32c-6.791.9-9.49,4.954-14,8V217l7-14h-3c-1.874,1.512-4.982,2.838-7,4v-5c3.335-4.309,4.064-10.277,7-15,2.693-4.332,7.166-7.781,10-12h-2c-1.919,1.772-3.136,1.9-7,2v-1c8.5-6.7,5.92-28,12-37,4.6-6.807,16.276-13.575,25-16l11-1c5.742-2.532,10.664-9.253,17-12,7.283-3.158,16.638-3.05,23-7,4.178-2.594,6.934-7.176,12-9v1c3.043,3.173,1.633,6.576,0,10h5c2.562-2.038,6.073-2.175,9-4,4.1-2.555,6.029-7.2,11-9v1C254.877,94.924,255.514,96.524,256,100ZM115,99c0.752,1.073.6,0.946,1,3h-2Q114.5,100.5,115,99Zm-9,5c3.474-.131,8.032-0.334,10,1,2.684,0.891,2.589,1.028,4,3h1v1h-2c-2.672-1.844-7.113-.664-10,0-2.145,3.634-4.219,12.212-7,15v-1c-1.36-1-1.806-1.929-3-3a50.11,50.11,0,0,1,1-11Zm10,14h-4v-5c2.806-1.513,4.964-2.043,10-2a21.509,21.509,0,0,1,1,7h-2a44.585,44.585,0,0,0-4-6v1C116.123,114.3,116.106,115.467,116,118Zm-6,2a17.171,17.171,0,0,1,9,2v1c-8.185-.165-10.308,2.7-10,11a6.1,6.1,0,0,1,2,2h-2c-2.512-3.746-3.975-4.065-4-11,0.8-1.021.355-.274,1-2A18.068,18.068,0,0,0,110,120Zm6,5c2.978,2.558,2.73,6.65,5,10,2.523,3.723,7.2,4.233,9,9-0.682.771-1.311,2.232-2,3C123.851,140.963,113.548,134.142,116,125Zm89,81c0.09-10.308-1.534-17.862-2-27,5.43-3.523,14.784-13.714,17-20-9.468-.206-17.573-3.131-26-5l-14-22h-1c-1.75,6.061-8.276,18.318-13,22-5.295,3.976-18.17,5.514-25,7v2c2.769,1.761,15.889,14.491,17,17v14c-1.644,2.477-1.123,8.9-1,13h2c2.178-1.8,20.624-10.83,24-10C190.216,198.775,196.493,204.581,205,206Zm102,1c-1.2-8.658-3.762-17.963-4-28,5.614-3.641,14.7-13.432,17-20-9.388-.206-17.516-3.122-26-5l-14-22h-1c-1.75,6.061-8.276,18.318-13,22-5.7,3.962-17.8,5.428-25,7v2c8.925,5.672,17.28,14.611,17,30-1.749,2.643-1.126,9.695-1,14h2c2.112-1.736,20.852-10.771,24-10C291.154,199,297.343,206.183,307,207ZM176,159c9.126-.38,14.865,1.49,17,8,1.909,2.376,2.056,5.487,2,10-5.428,5.864-6.213,11.014-18,11-3.41-3.076-7.242-3.027-9-8-3.491-4.248-1.23-10.275,0-15A69.938,69.938,0,0,0,176,159Zm100,0c9.126-.38,14.865,1.49,17,8,1.909,2.376,2.056,5.487,2,10-3.706,3.813-7.188,7.293-11,11-8.225.264-14.034-2.065-16-8-3.491-4.248-1.23-10.275,0-15A69.938,69.938,0,0,0,276,159Zm-54,42c-1.533,2.464-2.291,2.276-3,6,2.99,2.787,6.209,6.013,9,9h7c3.983-4.08,8.889-5.914,10-13a6.1,6.1,0,0,1-2-2H222Zm13,68c-22.236.665-52.186-1.937-54-20-2.485-3.807-.111-18.925,1-24,1.766-.961,1.68-1.257,4-2,7.222-3.921,33.606,5.122,47,2,15.431-3.6,31.247-10.876,48-11,12.253,17.975,9.3,31.267-4,45-1.754-.631-0.971-0.193-2-1a23.55,23.55,0,0,1-7-10c9.866-4.348,14.11-12.834,11-27-1.766-.962-1.68-1.257-4-2-4.653-2.945-12.131.325-16,2-5.678,2.458-13.441,6.346-20,8-17.256,4.351-36.041-3.832-50-1-3.2,4.937-5.072,7-5,16,3.555,2.095,7.82,5.564,12,7C211.026,256.162,232.393,251.769,235,269Zm32-47h4c1.3,2.418,1.8,2.833,2,7-9.668,6.388-17.409,9.848-32,13-4.5.972-5.095-2.545-8-2-3.695.693-17.438,4.86-24,2q-0.5-1.5-1-3c-1.844-.719-10.531,4.084-17-1-0.877-1.295-.894-2.467-1-5,2.95-1.588,5.721-2.075,11-2,11.443,10.509,48.782-1.5,57-5C261.856,224.359,264.593,224.883,267,222ZM131,292q-0.5,3-1,6h-2c-1.579-2.508-2.861-3.936-6-5-0.828,3.245.49,1.528-2,3-5.62-5.208-15.246-6.974-20-13,4.252,0.076,8.393-.265,10-3-2.318-4.745,5.008-10.3,7-14-2.323-2.412-4.047-6.316-5-10h1c5.079,5.756,20.538,7.563,25,13,2.146,2.615-2.088,2.151,3,5a25.766,25.766,0,0,0-2,5h-2c-0.478-3.625-.262-3.642-3-5v1a19.893,19.893,0,0,0-6,6c4.148-.195,6.426-0.6,8,2a15.923,15.923,0,0,0-5,5c-1.577-1.039-4.073-4.63-5-3-1.67,1.794-2.351,4.12-3,7h8Zm198,0h8c-0.483-3.827-1.645-5.222-3-8-1.636,1.111-5.116,5.611-6,4-2.006-1.4-2.066-1.346-3-4-0.752-1.073-.6-0.946-1-3h8v-2a19.9,19.9,0,0,1-6-6h-1v1c-2.154,2.742-.759,3.88-5,5l-3-4,6-3-1-3c2.159-2.593,21.73-10.927,26-12v1c-2.323,2.412-4.047,6.316-5,10,5.794,1.494,7.92,8.894,7,14,3.739,0,7.772.382,10,2h-1c-4.653,4.741-14.013,10.106-21,12-0.828-3.245.49-1.528-2-3-0.992,1.619-3.9,5.682-5,4C329.062,295.333,329.332,295.561,329,292Zm-19-34h5a29.369,29.369,0,0,0,4,6c-0.631,1.754-.193.971-1,2a9.975,9.975,0,0,1-5,3v-2C311.226,264.792,310.431,261.526,310,258ZM186,272c10.159,0.236,17.53,6.97,21,14,0.8-1.021.355-.274,1-2,1.45-2.289.519-4.455,3-6,8.306,7.712,15.185,9.181,20,21,3.694-3.945,5.275-9.007,11-11,4.083,6.453,9.978,7.307,21,7,3.417-3.213,9.239-4.152,12-8,2.449-3.412,2.545-8.576,5-12,1.6,2.25,1.638,2.1,3,2,6.439-6.988,9.01-15.394,21-17a188.242,188.242,0,0,0,9,21h-2c-1.819-1.738-4.606-2.871-7-4v3c1.955,2.6,1.535,5.55,3,9,3.69,8.688,10.968,16.988,14,26h-1l-11-4v13c2.71,3.81,4.312,11.8,5,17-9.4-3.4-15.458,2.732-22,5v-2c3.928-4.23,5.044-11.885,5-20h-1c-3.925,30.729-55.76,54.5-95,40-13.259-4.9-28-14.726-35-26-2.665-4.289-3.006-10.056-6-14v8c2.263,3.229,4.007,10.234,5,14h-1c-4.7-4.679-12.751-6.72-21-5v-2c4.688-6,6.02-17.816,6-28h-2c-2.289,2.111-5.794,2.772-10,3v-1c6.758-7.117,14.878-23.4,16-35h-2c-1.924,1.877-3.524,2.514-7,3v-1c4.051-4.207,7.358-18.7,11-21,6.783,8.6,16.971,5.8,25,11,2.554,1.653,3.651,5.681,5,6C185.8,274.82,185.773,274.319,186,272Zm-48,17c2.542,1.455,1.128-.217,2,3-1.972,2.715-3.181,7.435-4,11h-1v-8C136.228,293.476,137.158,290.823,138,289Zm179,0h5l1,3c2.133,2.667,2.12,6.954,2,12h-1v1h-2C321.157,298.926,318.033,295.246,317,289Zm-92,24-9,21c4.522-.263,9.267-0.82,11,2-2.246,2.913-3.157,8.931-4,13h1c5-7.711,14.809-14.16,18-23-4.4.252-8.323,0.743-10-2,2.6-2.759,4.321-7.445,6-11H225Zm-39,74h-3v-7c-2.281-1.225-2.251-1.638-6-2-1.708,2.725-2.536,2.5-3,7h-3c0.6-4.252,1.707-5.006,2-10-2.281-1.225-2.251-1.638-6-2a12.205,12.205,0,0,1-4,4v-2c-3.55-4.141-2.458-19.556,2-22,3.062,2.793,7.5,3.562,11,6,4.6,3.2,9.046,8,14,11,3.666,2.219,8.066,2.207,11,5l-5,7h-1c-1.187-3.843-2.211-4.646-7-5a6.1,6.1,0,0,1-2,2v8Zm107-33c0.614,7.6,4.876,19.121-2,23-1.187-3.6-1.509-3.657-6-4-1.372,2.542-1.917,3.5-2,8,1.262,1.359,1.365,1.768,2,4h-3q-0.5-2.5-1-5c-2.418-1.3-2.833-1.8-7-2l-1,3c-1.4,2.1-.751,3.818,0,6h-3v-8c-2.418-1.3-2.833-1.8-7-2a31.05,31.05,0,0,1-3,5l-5-6v-2C271.044,370.491,277.835,356.636,293,354Z"/>
  <path id="Color_Fill_4" data-name="Color Fill 4" class="cls-4" d="M240,244c22.8-.834,35.388,12.233,35,34-5.37,10.389-22.168,19.423-31,6q-4-13-8-26c-4.436-6.343-12.272-7.644-23-8q0.5-1.5,1-3c15.983-3.445,26.523,1.468,35,8C246.924,249.3,243.613,247.866,240,244Zm-15,69h13l-6,13,10,1q-2.5,2.5-5,5l-14,17,4-14v-1H216v-1Z"/>
  <path id="Color_Fill_2" data-name="Color Fill 2" class="cls-5" d="M225,19c86.959-1.378,144.91,39.177,178,92,23.347,37.27,50.463,91.7-12,105-9.363-19.658-8.888-49.636-16-74-13.74-47.073-35.543-78.826-74-102-13.874-8.36-32.832-13.8-50-18ZM59,218c-2.667-77.814,38.18-134.561,88-165l34-15V37C101.968,50.834,53.141,128.453,42,213l-20,2v-6c6.179-23.379,7.515-44.528,16-64C65.558,81.757,132.864,18.95,225,28v1h-7l1,2c11.166-.423,26.815-0.171,33,5a375.818,375.818,0,0,0-52,113c-6.794,25.122-4.713,57.88-17,77C138.119,226,103.9,218.193,59,218ZM185,35l1,2,1-2h-2Zm-3,1,1,2,1-2h-2ZM22,225l19,4c-0.54,34.263,9.581,57.816,15,84-6.357.677-12.357,2.488-16,0C30.539,305.934,17.014,244.136,22,225Zm35,7c36.778,0.627,71.613,12.315,112,13-0.2,45.884-.9,89.8,4,132h-1c-32.625-8.849-61.06-13.328-84-31C69.413,331.681,56.862,266.982,57,232Z"/>
</svg>
